<svg width="6" height="17" viewBox="0 0 6 17" fill="none" xmlns="http://www.w3.org/2000/svg">
<path d="M3 0C2.60601 -2.35571e-09 2.21587 0.0833598 1.85188 0.245319C1.48788 0.407279 1.15715 0.644666 0.878568 0.943925C0.599988 1.24318 0.379016 1.59845 0.228271 1.98945C0.077525 2.38044 -4.15546e-05 2.7995 1.6701e-08 3.22269C-2.25173e-05 4.00371 0.264044 4.75816 0.743089 5.34573C1.22213 5.93329 1.88355 6.31398 2.60433 6.41699V16.575C2.60433 16.6877 2.64601 16.7958 2.72022 16.8755C2.79442 16.9552 2.89506 17 3 17C3.10494 17 3.20558 16.9552 3.27978 16.8755C3.35399 16.7958 3.39567 16.6877 3.39567 16.575V6.41682C4.11642 6.31381 4.77782 5.93315 5.25686 5.34562C5.7359 4.75809 5.99998 4.00368 6 3.22269C6.00004 2.7995 5.92247 2.38044 5.77173 1.98945C5.62098 1.59845 5.40001 1.24318 5.12143 0.943925C4.84285 0.644666 4.51212 0.407279 4.14812 0.245319C3.78413 0.0833598 3.39399 -2.35571e-09 3 0V0ZM2.23524 1.45333C2.35884 1.45333 2.48124 1.47948 2.59543 1.53029C2.70963 1.58109 2.81339 1.65556 2.90079 1.74944C2.98819 1.84332 3.05752 1.95477 3.10482 2.07743C3.15212 2.20009 3.17647 2.33155 3.17647 2.46432C3.17647 2.59709 3.15212 2.72855 3.10482 2.85121C3.05752 2.97387 2.98819 3.08532 2.90079 3.1792C2.81339 3.27308 2.70963 3.34755 2.59543 3.39835C2.48124 3.44916 2.35884 3.47531 2.23524 3.47531C1.98561 3.47531 1.74621 3.3688 1.56969 3.1792C1.39318 2.9896 1.29401 2.73245 1.29401 2.46432C1.29401 2.19619 1.39318 1.93904 1.56969 1.74944C1.74621 1.55984 1.98561 1.45333 2.23524 1.45333V1.45333Z" fill="white"/>
</svg>
